<svg width="18" height="18" viewBox="0 0 18 18" fill="none" xmlns="http://www.w3.org/2000/svg">
<path d="M8.67121 10.1116C8.67121 7.34013 10.9265 5.08328 13.696 5.08328C15.3991 5.08328 16.9082 5.93962 17.8188 7.23889C17.8061 7.1714 17.7935 7.1039 17.7766 7.03641C16.7185 2.21475 11.9298 -0.940627 6.87543 0.253186C3.00564 1.16858 -0.00841327 4.73737 1.76438e-05 8.9811C0.0210949 9.33966 0.0421722 9.69823 0.067465 10.0526C0.0801113 10.2213 0.113835 10.3858 0.143343 10.5504C0.733507 13.6593 2.47449 15.8824 5.32836 17.2112C6.92601 17.9579 8.62063 18.1351 10.3658 17.8946C11.2384 17.7723 11.9803 17.4222 12.4946 16.6839C12.8445 16.1819 13.0131 15.6462 13.0173 15.0894C10.564 14.7603 8.67121 12.6511 8.67121 10.1116ZM9.88948 2.2485C10.6398 2.24428 11.2426 2.8433 11.2426 3.59417C11.2426 4.34505 10.6483 4.94829 9.90213 4.95251C9.16442 4.95251 8.54475 4.3324 8.54896 3.59839C8.55318 2.86439 9.16442 2.25272 9.88948 2.2485ZM3.61266 11.2422C2.86231 11.2464 2.2595 10.6474 2.2595 9.90071C2.2595 9.16249 2.87917 8.54238 3.61266 8.5466C4.34194 8.55082 4.95318 9.16249 4.95739 9.88806C4.95739 10.6389 4.36302 11.2422 3.61266 11.2422ZM3.60423 5.42075C3.5958 4.42098 4.40517 3.60261 5.40002 3.60261C6.39487 3.60261 7.19159 4.39989 7.1958 5.39544C7.20002 6.39521 6.41594 7.19249 5.41688 7.19671C4.42203 7.20092 3.61266 6.40786 3.60423 5.42075ZM7.20002 15.2919C6.20095 15.2919 5.41266 14.4988 5.41266 13.499C5.41266 12.5035 6.20939 11.6978 7.20002 11.6978C8.19487 11.6978 9.00845 12.5119 9.00423 13.5075C8.9958 14.503 8.19487 15.2961 7.20002 15.2919Z" fill="#ED5839"/>
<path d="M13.6879 9.11624C13.1483 9.12046 12.7015 9.56761 12.6973 10.1034C12.6931 10.6517 13.1441 11.1073 13.6921 11.1073C14.2402 11.1073 14.687 10.6602 14.6912 10.116C14.6912 9.56761 14.2359 9.11202 13.6879 9.11624Z" fill="#ED5839"/>
<path d="M13.6969 5.80078C11.3194 5.80078 9.38867 7.73282 9.38867 10.112C9.38867 12.4912 11.3194 14.4232 13.6969 14.4232C16.0744 14.4232 18.0051 12.4912 18.0051 10.112C18.0051 7.73282 16.0744 5.80078 13.6969 5.80078ZM16.0364 10.9768C16.0027 11.0569 15.9648 11.1413 15.9311 11.2257C15.8468 11.4239 15.6191 11.5125 15.421 11.4282C15.362 11.4028 15.303 11.3775 15.2439 11.348C15.1428 11.3016 15.0838 11.3311 14.9868 11.4324C14.8983 11.521 14.8013 11.6053 14.6959 11.6686C14.4894 11.7994 14.4135 11.8078 14.4304 11.9344C14.443 12.0061 14.4514 12.0778 14.4599 12.1495C14.4852 12.3604 14.3334 12.5503 14.1226 12.5756C14.0341 12.5882 13.9456 12.5967 13.8528 12.6093C13.6421 12.6346 13.4482 12.4828 13.4229 12.2718C13.4144 12.2043 13.406 12.1326 13.4018 12.0651C13.3934 11.9765 13.3554 11.9428 13.2542 11.9133C13.073 11.8627 12.9001 11.7909 12.74 11.6939C12.6219 11.6264 12.5629 11.6053 12.4786 11.6728C12.428 11.715 12.3732 11.7572 12.3184 11.7952C12.1456 11.9217 11.9053 11.888 11.7788 11.7192C11.724 11.6475 11.6692 11.5758 11.6186 11.5041C11.4922 11.3311 11.5259 11.0907 11.6987 10.9641C11.7493 10.9262 11.7999 10.8882 11.8505 10.8544C11.9179 10.808 11.9475 10.7616 11.9306 10.6646C11.8884 10.4537 11.8716 10.2343 11.8589 10.0192C11.8547 9.9264 11.8252 9.87578 11.7325 9.84203C11.6734 9.82094 11.6144 9.79563 11.5596 9.77032C11.3657 9.68595 11.273 9.45815 11.3573 9.2641C11.391 9.17974 11.429 9.09959 11.4627 9.01522C11.547 8.82117 11.7704 8.72836 11.9685 8.81273C12.036 8.84226 12.1076 8.87179 12.1751 8.8971C12.213 8.91398 12.2805 8.90554 12.3142 8.88445C12.5165 8.74524 12.7105 8.59338 12.9086 8.44995C12.9634 8.41198 12.9718 8.3698 12.9634 8.30652C12.9549 8.23903 12.9465 8.16732 12.9381 8.09982C12.9128 7.8889 13.0646 7.69485 13.2753 7.66954C13.3638 7.6611 13.4524 7.64845 13.5409 7.64001C13.7517 7.6147 13.9456 7.76657 13.9709 7.97749C13.9793 8.04076 13.9835 8.10826 13.992 8.17153C14.0004 8.25168 14.0257 8.28965 14.1016 8.31918C14.3208 8.40776 14.5357 8.50901 14.7592 8.59759C14.8013 8.61447 14.8688 8.60603 14.9067 8.58072C14.9657 8.53854 15.0247 8.49635 15.0838 8.45417C15.2566 8.32761 15.4969 8.36136 15.6233 8.53432C15.6781 8.60603 15.7287 8.67774 15.7835 8.74946C15.9142 8.92241 15.8763 9.16708 15.6992 9.29363C15.6571 9.32316 15.6191 9.35269 15.577 9.378C15.4758 9.4455 15.4505 9.52143 15.48 9.64798C15.5264 9.84625 15.5517 10.0487 15.5559 10.2512C15.5559 10.3356 15.5812 10.3693 15.6444 10.3989C15.7119 10.4284 15.7793 10.4537 15.8468 10.4832C16.028 10.5549 16.1208 10.7827 16.0364 10.9768Z" fill="#ED5839"/>
</svg>
