<svg width="19" height="18" viewBox="0 0 19 18" fill="none" xmlns="http://www.w3.org/2000/svg">
<path d="M3.30879 2.03521C3.52815 1.82803 3.84501 1.79147 4.11312 1.92552C4.1375 1.93771 4.16187 1.9499 4.18625 1.96209C4.67372 2.24238 5.14901 2.54705 5.63648 2.81517C5.74616 2.8761 6.01428 2.85173 6.13614 2.81517C6.23364 2.79079 6.25801 2.77861 6.30676 2.76642C6.94048 2.66892 7.03797 2.2302 7.11109 1.65741C7.17203 1.25525 7.2939 0.865267 7.39139 0.463101C7.46451 0.19499 7.70825 0 7.98855 0C8.64664 0 9.30473 0 9.96282 0C10.2919 0 10.4869 0.158429 10.56 0.475288C10.694 1.06026 10.8403 1.63304 10.9743 2.21801C11.0231 2.413 11.1328 2.51049 11.3034 2.60799C11.9127 2.98578 12.4368 2.86391 12.973 2.44956C13.2411 2.2302 13.5701 2.08395 13.8748 1.90115C14.1429 1.74272 14.3867 1.7671 14.6182 1.98646C15.0813 2.44956 15.5444 2.91266 16.0075 3.37576C16.2512 3.6195 16.2512 3.88761 16.0806 4.16791C15.7881 4.65538 15.4957 5.15504 15.191 5.64252C15.0935 5.80095 15.1301 6.05687 15.191 6.2153C15.2397 6.34936 15.2641 6.41029 15.3129 6.50779C15.5932 7.06838 15.8125 7.09276 16.3487 7.16588C16.7387 7.22681 17.1165 7.34868 17.5065 7.44617C17.8721 7.53148 18.0427 7.75085 18.0062 8.1652C17.9574 8.75017 17.9696 9.33514 18.0062 9.9323C18.0305 10.3223 17.8721 10.5416 17.5187 10.6269C16.9337 10.761 16.3609 10.8707 15.776 11.0047C15.5688 11.0535 15.5078 11.2241 15.3982 11.3947C15.0204 11.9919 15.1422 12.5037 15.5566 13.0278C15.7638 13.2837 15.91 13.6005 16.0806 13.8808C16.2512 14.1611 16.2025 14.5146 15.9709 14.7461C15.5322 15.1726 15.1057 15.5992 14.6791 16.0379C14.4232 16.306 14.1429 16.3426 13.8261 16.1476C13.3386 15.8551 12.7536 15.5383 12.2418 15.2823C12.1686 15.2458 11.9005 15.2336 11.7543 15.258C11.0353 15.392 10.6818 15.7942 10.6087 16.501C10.5722 16.8422 10.6453 17.22 10.5478 17.5613C10.4625 17.8903 10.2309 18.0487 9.84095 18C9.25598 17.9391 8.65882 17.9634 8.07386 18C7.69606 18.0244 7.46451 17.8781 7.3792 17.5369C7.24515 17.0129 7.11109 16.501 6.98922 15.977C6.94048 15.7576 6.80642 15.5748 6.61143 15.4529C6.00209 15.0752 5.49024 15.197 4.9662 15.6114C4.69809 15.8307 4.36905 15.977 4.06438 16.1598C3.78408 16.3182 3.51597 16.2938 3.28442 16.0501C2.84569 15.5992 2.40696 15.1483 1.95605 14.7217C1.70012 14.478 1.66356 14.2099 1.84637 13.9052C2.15104 13.4056 2.51664 12.7596 2.74819 12.2234C2.79694 12.1016 2.77257 11.9309 2.74819 11.7847C2.61414 11.0657 2.16323 10.9316 1.46857 10.8585C1.12734 10.8219 0.78611 10.7001 0.444877 10.6026C0.0914583 10.5051 -0.0547841 10.2613 0.0183371 9.82261C0.103645 9.29858 0.103645 8.75017 0.0183371 8.22613C-0.0547841 7.78741 0.115832 7.53148 0.481438 7.44617C1.04203 7.29993 1.61482 7.17806 2.17541 7.00745C2.30947 6.97089 2.41915 6.86121 2.50446 6.72715C2.52883 6.69059 2.55321 6.65403 2.57758 6.61747C2.94318 6.09343 2.79694 5.58158 2.44352 5.11848C2.22416 4.826 2.06573 4.49695 1.88293 4.19228C1.68794 3.87542 1.71231 3.60731 1.98042 3.3392C2.43134 2.91266 2.85788 2.46175 3.30879 2.03521ZM8.9635 6.3981C7.52545 6.3981 6.33113 7.6046 6.34332 9.04265C6.34332 10.4807 7.54982 11.675 8.98787 11.6628C10.4259 11.6628 11.6202 10.4563 11.608 9.01828C11.608 7.58023 10.4137 6.38592 8.9635 6.3981Z" fill="#ED5839"/>
</svg>
