<svg width="20" height="20" viewBox="0 0 20 20" fill="none" xmlns="http://www.w3.org/2000/svg">
<path d="M9.16302 0C9.68145 0 10.1999 0 10.7245 0C10.7495 0.0124922 10.7745 0.0374766 10.7995 0.0374766C11.8488 0.118676 12.8607 0.362274 13.8289 0.76827C18.1512 2.59838 20.5996 7.05184 19.8064 11.6802C19.3567 14.3161 18.0325 16.446 15.8776 18.0137C13.223 19.9438 10.2748 20.431 7.12055 19.5315C3.4416 18.4884 0.65584 15.2467 0.106184 11.4366C0.0749532 11.2242 0.0374766 11.0119 0 10.7995C0 10.2561 0 9.70643 0 9.16302C0.0124922 9.13179 0.0312305 9.10056 0.0374766 9.06933C0.162398 8.41974 0.243598 7.75765 0.418488 7.12679C1.47408 3.4416 4.7158 0.65584 8.52592 0.106184C8.73829 0.0749531 8.95066 0.0374766 9.16302 0ZM16.0899 9.97501C16.0525 6.56465 13.3542 3.87258 9.97501 3.87258C6.57714 3.87258 3.87258 6.58963 3.87258 9.97501C3.87258 13.3854 6.60212 16.0774 9.98126 16.0774C13.3791 16.0774 16.0587 13.3604 16.0899 9.97501ZM9.30668 2.99188C11.2867 2.84197 13.0543 3.37289 14.5534 4.67833C16.0587 5.98376 16.8707 7.64522 16.9769 9.63773C17.0581 11.2055 16.6583 12.6546 15.7589 13.935C14.3598 15.9275 12.411 16.9269 9.98751 17.0019C9.98751 17.6952 9.98751 18.3698 9.98751 19.0756C13.5478 18.9132 16.321 17.3891 17.97 14.2286C19.7751 10.7745 19.4379 7.36415 17.0206 4.29731C15.0843 1.83011 12.436 0.787008 9.30668 0.930668C9.30668 1.63648 9.30668 2.30481 9.30668 2.99188Z" fill="#ED5839"/>
<path d="M9.30664 2.99185C9.30664 2.30478 9.30664 1.6302 9.30664 0.918142C12.4297 0.774482 15.078 1.81758 17.0206 4.28479C19.4316 7.35787 19.7689 10.762 17.97 14.2161C16.321 17.3766 13.554 18.9069 9.98746 19.0631C9.98746 18.3572 9.98746 17.6827 9.98746 16.9894C12.4047 16.9144 14.3535 15.915 15.7589 13.9225C16.6583 12.6421 17.058 11.193 16.9768 9.6252C16.8707 7.6327 16.0587 5.97123 14.5534 4.6658C13.0543 3.3791 11.2929 2.84819 9.30664 2.99185Z" fill="white"/>
</svg>
